<svg width="282" height="239" viewBox="0 0 282 239" fill="none" xmlns="http://www.w3.org/2000/svg">
<path d="M275.93 194.44C270.56 197.19 263.94 195.09 261.17 189.69C244.34 156.9 199.67 109.89 141.45 109.89C89.2401 109.89 42.8301 148.56 21.7301 189.69C18.9501 195.07 12.3401 197.2 6.96012 194.43C1.58012 191.66 -0.55988 185.06 2.20012 179.68C26.4401 132.34 79.7501 87.95 141.45 87.95C211.81 87.95 262.2 143.56 280.7 179.67C283.46 185.07 281.33 191.68 275.93 194.44ZM5.26012 76.59L29.7001 98.64C34.2301 102.72 41.1601 102.32 45.2001 97.84C49.2601 93.34 48.9001 86.4 44.4001 82.34L19.9601 60.3C15.4601 56.24 8.52012 56.6 4.46012 61.1C0.41012 65.6 0.76012 72.54 5.26012 76.59ZM253.2 98.64L277.64 76.6C282.14 72.54 282.5 65.61 278.44 61.1C274.38 56.6 267.44 56.24 262.94 60.3L238.5 82.35C234 86.41 233.64 93.34 237.7 97.85C241.75 102.32 248.68 102.72 253.2 98.64ZM141.45 54.89C147.51 54.89 152.42 49.97 152.42 43.92V10.97C152.42 4.91 147.51 0 141.45 0C135.39 0 130.48 4.92 130.48 10.97V43.92C130.48 49.98 135.39 54.89 141.45 54.89ZM195.36 184.68C195.36 214.45 171.18 238.67 141.46 238.67C111.74 238.67 87.5601 214.45 87.5601 184.68C87.5601 154.91 111.74 130.69 141.46 130.69C171.18 130.69 195.36 154.91 195.36 184.68ZM173.41 184.68C173.41 167.01 159.07 152.64 141.45 152.64C123.83 152.64 109.49 167.01 109.49 184.68C109.49 202.35 123.83 216.72 141.45 216.72C159.07 216.72 173.41 202.34 173.41 184.68Z" fill="white"/>
</svg>
